# xmcd CD database file
#
# Track frame offsets:
#	150
#	22847
#	37635
#	56145
#	89587
#	103770
#	121247
#	138657
#	152725
#	189895
#	210435
#	229567
#	246965
#	271095
#	287100
#	301285
#
# Disc length: 4521 seconds
#
# Revision: 1
# Processed by: cddbd v1.5.2PL0 Copyright (c) Steve Scherf et al.
# Submitted via: CDex 1.51
#
DISCID=d011a710
DTITLE=Sky High - Safe Sex, Live (Remastered)
DYEAR=1990
DGENRE=Blues
TTITLE0=Don't Move                   
TTITLE1=Boogie For Peace             
TTITLE2=Stone Free                   
TTITLE3=Red House                    
TTITLE4=Come On                      
TTITLE5=Don't Turn Your Back         
TTITLE6=Hey Joe                      
TTITLE7=Fire                         
TTITLE8=Voodo Chile                  
TTITLE9=Hard Working Man             
TTITLE10=Ramblin' On My Mind          
TTITLE11=Manic Depression             
TTITLE12=I Ain't Beggin'              
TTITLE13=Foxy Lady                    
TTITLE14=You Got Me Hooked            
TTITLE15=Lilla Flicka, Nig Å Kuta Runt
EXTD=YEAR: 1990
EXTT0=
EXTT1=
EXTT2=
EXTT3=
EXTT4=
EXTT5=
EXTT6=
EXTT7=
EXTT8=
EXTT9=
EXTT10=
EXTT11=
EXTT12=
EXTT13=
EXTT14=
EXTT15=
PLAYORDER=
